<svg id="visual" viewBox="0 0 1440 100" width="1440" height="100" xmlns="http://www.w3.org/2000/svg" xmlns:xlink="http://www.w3.org/1999/xlink" version="1.1"><path d="M0 43L80 43.7C160 44.3 320 45.7 480 42.3C640 39 800 31 960 28.2C1120 25.3 1280 27.7 1360 28.8L1440 30L1440 0L1360 0C1280 0 1120 0 960 0C800 0 640 0 480 0C320 0 160 0 80 0L0 0Z" fill="#fdbdfa"></path><path d="M0 77L80 73.2C160 69.3 320 61.7 480 56.3C640 51 800 48 960 49.2C1120 50.3 1280 55.7 1360 58.3L1440 61L1440 28L1360 26.8C1280 25.7 1120 23.3 960 26.2C800 29 640 37 480 40.3C320 43.7 160 42.3 80 41.7L0 41Z" fill="#ffdefd"></path><path d="M0 101L80 101C160 101 320 101 480 101C640 101 800 101 960 101C1120 101 1280 101 1360 101L1440 101L1440 59L1360 56.3C1280 53.7 1120 48.3 960 47.2C800 46 640 49 480 54.3C320 59.7 160 67.3 80 71.2L0 75Z" fill="#ffffff"></path></svg>