<svg id="visual" viewBox="0 0 320 250" width="320" height="250" xmlns="http://www.w3.org/2000/svg" xmlns:xlink="http://www.w3.org/1999/xlink" version="1.1"><path d="M0 76L17.8 84C35.7 92 71.3 108 106.8 114.3C142.3 120.7 177.7 117.3 213.2 101.8C248.7 86.3 284.3 58.7 302.2 44.8L320 31L320 0L302.2 0C284.3 0 248.7 0 213.2 0C177.7 0 142.3 0 106.8 0C71.3 0 35.7 0 17.8 0L0 0Z" fill="#ffffff"></path><path d="M0 144L17.8 151.5C35.7 159 71.3 174 106.8 169C142.3 164 177.7 139 213.2 116C248.7 93 284.3 72 302.2 61.5L320 51L320 29L302.2 42.8C284.3 56.7 248.7 84.3 213.2 99.8C177.7 115.3 142.3 118.7 106.8 112.3C71.3 106 35.7 90 17.8 82L0 74Z" fill="#ffe3fe"></path><path d="M0 251L17.8 251C35.7 251 71.3 251 106.8 251C142.3 251 177.7 251 213.2 251C248.7 251 284.3 251 302.2 251L320 251L320 49L302.2 59.5C284.3 70 248.7 91 213.2 114C177.7 137 142.3 162 106.8 167C71.3 172 35.7 157 17.8 149.5L0 142Z" fill="#ffc6fc"></path></svg>