<svg id="visual" viewBox="0 0 1440 200" width="1440" height="200" xmlns="http://www.w3.org/2000/svg" xmlns:xlink="http://www.w3.org/1999/xlink" version="1.1"><path d="M0 7L80 6.7C160 6.3 320 5.7 480 10.3C640 15 800 25 960 29C1120 33 1280 31 1360 30L1440 29L1440 0L1360 0C1280 0 1120 0 960 0C800 0 640 0 480 0C320 0 160 0 80 0L0 0Z" fill="#fdbdfa"></path><path d="M0 61L80 54C160 47 320 33 480 37C640 41 800 63 960 73C1120 83 1280 81 1360 80L1440 79L1440 27L1360 28C1280 29 1120 31 960 27C800 23 640 13 480 8.3C320 3.7 160 4.3 80 4.7L0 5Z" fill="#fecefc"></path><path d="M0 69L80 61C160 53 320 37 480 43C640 49 800 77 960 96.3C1120 115.7 1280 126.3 1360 131.7L1440 137L1440 77L1360 78C1280 79 1120 81 960 71C800 61 640 39 480 35C320 31 160 45 80 52L0 59Z" fill="#ffdefd"></path><path d="M0 87L80 88.3C160 89.7 320 92.3 480 101.7C640 111 800 127 960 143C1120 159 1280 175 1360 183L1440 191L1440 135L1360 129.7C1280 124.3 1120 113.7 960 94.3C800 75 640 47 480 41C320 35 160 51 80 59L0 67Z" fill="#ffeffe"></path><path d="M0 201L80 201C160 201 320 201 480 201C640 201 800 201 960 201C1120 201 1280 201 1360 201L1440 201L1440 189L1360 181C1280 173 1120 157 960 141C800 125 640 109 480 99.7C320 90.3 160 87.7 80 86.3L0 85Z" fill="#ffffff"></path></svg>