<svg id="visual" viewBox="0 0 1440 400" width="1440" height="400" xmlns="http://www.w3.org/2000/svg" xmlns:xlink="http://www.w3.org/1999/xlink" version="1.1"><path d="M0 169L80 171.7C160 174.3 320 179.7 480 166.3C640 153 800 121 960 109.7C1120 98.3 1280 107.7 1360 112.3L1440 117L1440 0L1360 0C1280 0 1120 0 960 0C800 0 640 0 480 0C320 0 160 0 80 0L0 0Z" fill="#fdbdfab3"></path><path d="M0 305L80 289.7C160 274.3 320 243.7 480 222.3C640 201 800 189 960 193.7C1120 198.3 1280 219.7 1360 230.3L1440 241L1440 115L1360 110.3C1280 105.7 1120 96.3 960 107.7C800 119 640 151 480 164.3C320 177.7 160 172.3 80 169.7L0 167Z" fill="#ffdefd"></path><path d="M0 401L80 401C160 401 320 401 480 401C640 401 800 401 960 401C1120 401 1280 401 1360 401L1440 401L1440 239L1360 228.3C1280 217.7 1120 196.3 960 191.7C800 187 640 199 480 220.3C320 241.7 160 272.3 80 287.7L0 303Z" fill="#ffffffb3"></path></svg>