<svg id="visual" viewBox="0 0 1440 250" width="1440" height="250" xmlns="http://www.w3.org/2000/svg" xmlns:xlink="http://www.w3.org/1999/xlink" version="1.1"><path d="M0 76L80 84C160 92 320 108 480 114.3C640 120.7 800 117.3 960 101.8C1120 86.3 1280 58.7 1360 44.8L1440 31L1440 0L1360 0C1280 0 1120 0 960 0C800 0 640 0 480 0C320 0 160 0 80 0L0 0Z" fill="#ffffff"></path><path d="M0 144L80 151.5C160 159 320 174 480 169C640 164 800 139 960 116C1120 93 1280 72 1360 61.5L1440 51L1440 29L1360 42.8C1280 56.7 1120 84.3 960 99.8C800 115.3 640 118.7 480 112.3C320 106 160 90 80 82L0 74Z" fill="#ffe3fe"></path><path d="M0 251L80 251C160 251 320 251 480 251C640 251 800 251 960 251C1120 251 1280 251 1360 251L1440 251L1440 49L1360 59.5C1280 70 1120 91 960 114C800 137 640 162 480 167C320 172 160 157 80 149.5L0 142Z" fill="#ffc6fc"></path></svg>