<svg id="visual" viewBox="0 0 1440 250" width="1440" height="250" xmlns="http://www.w3.org/2000/svg" xmlns:xlink="http://www.w3.org/1999/xlink" version="1.1"><path d="M0 146L48 137.7C96 129.3 192 112.7 288 109C384 105.3 480 114.7 576 112.7C672 110.7 768 97.3 864 89C960 80.7 1056 77.3 1152 78.5C1248 79.7 1344 85.3 1392 88.2L1440 91L1440 0L1392 0C1344 0 1248 0 1152 0C1056 0 960 0 864 0C768 0 672 0 576 0C480 0 384 0 288 0C192 0 96 0 48 0L0 0Z" fill="#ff9fbf00"></path><path d="M0 154L48 150.2C96 146.3 192 138.7 288 143.2C384 147.7 480 164.3 576 158.2C672 152 768 123 864 121.8C960 120.7 1056 147.3 1152 149.8C1248 152.3 1344 130.7 1392 119.8L1440 109L1440 89L1392 86.2C1344 83.3 1248 77.7 1152 76.5C1056 75.3 960 78.7 864 87C768 95.3 672 108.7 576 110.7C480 112.7 384 103.3 288 107C192 110.7 96 127.3 48 135.7L0 144Z" fill="#ffc0d4a3"></path><path d="M0 199L48 203.5C96 208 192 217 288 217.8C384 218.7 480 211.3 576 203.5C672 195.7 768 187.3 864 194C960 200.7 1056 222.3 1152 222.3C1248 222.3 1344 200.7 1392 189.8L1440 179L1440 107L1392 117.8C1344 128.7 1248 150.3 1152 147.8C1056 145.3 960 118.7 864 119.8C768 121 672 150 576 156.2C480 162.3 384 145.7 288 141.2C192 136.7 96 144.3 48 148.2L0 152Z" fill="#ffe0eab3"></path><path d="M0 251L48 251C96 251 192 251 288 251C384 251 480 251 576 251C672 251 768 251 864 251C960 251 1056 251 1152 251C1248 251 1344 251 1392 251L1440 251L1440 177L1392 187.8C1344 198.7 1248 220.3 1152 220.3C1056 220.3 960 198.7 864 192C768 185.3 672 193.7 576 201.5C480 209.3 384 216.7 288 215.8C192 215 96 206 48 201.5L0 197Z" fill="#ffffff"></path></svg>