<svg id="visual" viewBox="0 0 1440 250" width="1440" height="250" xmlns="http://www.w3.org/2000/svg" xmlns:xlink="http://www.w3.org/1999/xlink" version="1.1"><path d="M0 69L80 64.3C160 59.7 320 50.3 480 52C640 53.7 800 66.3 960 71.3C1120 76.3 1280 73.7 1360 72.3L1440 71L1440 0L1360 0C1280 0 1120 0 960 0C800 0 640 0 480 0C320 0 160 0 80 0L0 0Z" fill="#ffc6fc00"></path><path d="M0 186L80 172.7C160 159.3 320 132.7 480 135.2C640 137.7 800 169.3 960 173.5C1120 177.7 1280 154.3 1360 142.7L1440 131L1440 69L1360 70.3C1280 71.7 1120 74.3 960 69.3C800 64.3 640 51.7 480 50C320 48.3 160 57.7 80 62.3L0 67Z" fill="#ffe3fe53"></path><path d="M0 251L80 251C160 251 320 251 480 251C640 251 800 251 960 251C1120 251 1280 251 1360 251L1440 251L1440 129L1360 140.7C1280 152.3 1120 175.7 960 171.5C800 167.3 640 135.7 480 133.2C320 130.7 160 157.3 80 170.7L0 184Z" fill="#ffffff"></path></svg>