<svg id="visual" viewBox="0 0 1440 150" width="1440" height="150" xmlns="http://www.w3.org/2000/svg" xmlns:xlink="http://www.w3.org/1999/xlink" version="1.1"><path d="M0 84L48 84.3C96 84.7 192 85.3 288 76.8C384 68.3 480 50.7 576 40.3C672 30 768 27 864 31.2C960 35.3 1056 46.7 1152 48.7C1248 50.7 1344 43.3 1392 39.7L1440 36L1440 0L1392 0C1344 0 1248 0 1152 0C1056 0 960 0 864 0C768 0 672 0 576 0C480 0 384 0 288 0C192 0 96 0 48 0L0 0Z" fill="#ff9fbf00"></path><path d="M0 99L48 102.7C96 106.3 192 113.7 288 106.3C384 99 480 77 576 65.3C672 53.7 768 52.3 864 59.7C960 67 1056 83 1152 85.2C1248 87.3 1344 75.7 1392 69.8L1440 64L1440 34L1392 37.7C1344 41.3 1248 48.7 1152 46.7C1056 44.7 960 33.3 864 29.2C768 25 672 28 576 38.3C480 48.7 384 66.3 288 74.8C192 83.3 96 82.7 48 82.3L0 82Z" fill="#ffc0d4d3"></path><path d="M0 127L48 128.3C96 129.7 192 132.3 288 121.5C384 110.7 480 86.3 576 76.5C672 66.7 768 71.3 864 78.7C960 86 1056 96 1152 97C1248 98 1344 90 1392 86L1440 82L1440 62L1392 67.8C1344 73.7 1248 85.3 1152 83.2C1056 81 960 65 864 57.7C768 50.3 672 51.7 576 63.3C480 75 384 97 288 104.3C192 111.7 96 104.3 48 100.7L0 97Z" fill="#ffe0ea"></path><path d="M0 151L48 151C96 151 192 151 288 151C384 151 480 151 576 151C672 151 768 151 864 151C960 151 1056 151 1152 151C1248 151 1344 151 1392 151L1440 151L1440 80L1392 84C1344 88 1248 96 1152 95C1056 94 960 84 864 76.7C768 69.3 672 64.7 576 74.5C480 84.3 384 108.7 288 119.5C192 130.3 96 127.7 48 126.3L0 125Z" fill="#ffffff"></path></svg>