<svg id="visual" viewBox="0 0 1440 250" width="1440" height="250" xmlns="http://www.w3.org/2000/svg" xmlns:xlink="http://www.w3.org/1999/xlink" version="1.1"><path d="M0 54L40 60.7C80 67.3 160 80.7 240 81C320 81.3 400 68.7 480 56.5C560 44.3 640 32.7 720 33.5C800 34.3 880 47.7 960 59C1040 70.3 1120 79.7 1200 81.3C1280 83 1360 77 1400 74L1440 71L1440 0L1400 0C1360 0 1280 0 1200 0C1120 0 1040 0 960 0C880 0 800 0 720 0C640 0 560 0 480 0C400 0 320 0 240 0C160 0 80 0 40 0L0 0Z" fill="#ff9fbf00"></path><path d="M0 64L40 78.2C80 92.3 160 120.7 240 119.8C320 119 400 89 480 69.3C560 49.7 640 40.3 720 48.7C800 57 880 83 960 99.7C1040 116.3 1120 123.7 1200 120.7C1280 117.7 1360 104.3 1400 97.7L1440 91L1440 69L1400 72C1360 75 1280 81 1200 79.3C1120 77.7 1040 68.3 960 57C880 45.7 800 32.3 720 31.5C640 30.7 560 42.3 480 54.5C400 66.7 320 79.3 240 79C160 78.7 80 65.3 40 58.7L0 52Z" fill="#ffc0d493"></path><path d="M0 74L40 91C80 108 160 142 240 143.2C320 144.3 400 112.7 480 103.5C560 94.3 640 107.7 720 135.7C800 163.7 880 206.3 960 216C1040 225.7 1120 202.3 1200 179.8C1280 157.3 1360 135.7 1400 124.8L1440 114L1440 89L1400 95.7C1360 102.3 1280 115.7 1200 118.7C1120 121.7 1040 114.3 960 97.7C880 81 800 55 720 46.7C640 38.3 560 47.7 480 67.3C400 87 320 117 240 117.8C160 118.7 80 90.3 40 76.2L0 62Z" fill="#ffe0eab3"></path><path d="M0 251L40 251C80 251 160 251 240 251C320 251 400 251 480 251C560 251 640 251 720 251C800 251 880 251 960 251C1040 251 1120 251 1200 251C1280 251 1360 251 1400 251L1440 251L1440 112L1400 122.8C1360 133.7 1280 155.3 1200 177.8C1120 200.3 1040 223.7 960 214C880 204.3 800 161.7 720 133.7C640 105.7 560 92.3 480 101.5C400 110.7 320 142.3 240 141.2C160 140 80 106 40 89L0 72Z" fill="#ffffff"></path></svg>