<svg id="visual" viewBox="0 0 1440 150" width="1440" height="150" xmlns="http://www.w3.org/2000/svg" xmlns:xlink="http://www.w3.org/1999/xlink" version="1.1"><path d="M0 57L48 61.8C96 66.7 192 76.3 288 70.3C384 64.3 480 42.7 576 33C672 23.3 768 25.7 864 32.3C960 39 1056 50 1152 58.8C1248 67.7 1344 74.3 1392 77.7L1440 81L1440 0L1392 0C1344 0 1248 0 1152 0C1056 0 960 0 864 0C768 0 672 0 576 0C480 0 384 0 288 0C192 0 96 0 48 0L0 0Z" fill="#ff9fbf00"></path><path d="M0 62L48 66.7C96 71.3 192 80.7 288 76.3C384 72 480 54 576 48C672 42 768 48 864 55.5C960 63 1056 72 1152 81.7C1248 91.3 1344 101.7 1392 106.8L1440 112L1440 79L1392 75.7C1344 72.3 1248 65.7 1152 56.8C1056 48 960 37 864 30.3C768 23.7 672 21.3 576 31C480 40.7 384 62.3 288 68.3C192 74.3 96 64.7 48 59.8L0 55Z" fill="#ffc0d4d3"></path><path d="M0 79L48 81.5C96 84 192 89 288 91.3C384 93.7 480 93.3 576 93.8C672 94.3 768 95.7 864 100.3C960 105 1056 113 1152 121C1248 129 1344 137 1392 141L1440 145L1440 110L1392 104.8C1344 99.7 1248 89.3 1152 79.7C1056 70 960 61 864 53.5C768 46 672 40 576 46C480 52 384 70 288 74.3C192 78.7 96 69.3 48 64.7L0 60Z" fill="#ffe0eaf3"></path><path d="M0 151L48 151C96 151 192 151 288 151C384 151 480 151 576 151C672 151 768 151 864 151C960 151 1056 151 1152 151C1248 151 1344 151 1392 151L1440 151L1440 143L1392 139C1344 135 1248 127 1152 119C1056 111 960 103 864 98.3C768 93.7 672 92.3 576 91.8C480 91.3 384 91.7 288 89.3C192 87 96 82 48 79.5L0 77Z" fill="#ffffff"></path></svg>